<svg viewBox="0 0 640 360" xmlns="http://www.w3.org/2000/svg" font-family="sans-serif"><defs><marker id="arrow" markerWidth="10" markerHeight="7" refX="10" refY="3.5" orient="auto"><polygon points="0 0, 10 3.5, 0 7" fill="#333"/></marker></defs><rect x="0" y="0" width="640" height="360" fill="#f7f9fc"/><text x="320" y="26" text-anchor="middle" font-size="16" font-weight="bold" fill="#1a2a44">光子芯片主动对准封装流程</text><rect x="30" y="70" width="110" height="70" rx="8" fill="#dbeafe" stroke="#2563eb"/><text x="85" y="100" text-anchor="middle" font-size="13" fill="#1e3a8a">激光器/</text><text x="85" y="118" text-anchor="middle" font-size="13" fill="#1e3a8a">光纤阵列</text><rect x="190" y="70" width="120" height="70" rx="8" fill="#fef3c7" stroke="#d97706"/><text x="250" y="100" text-anchor="middle" font-size="13" fill="#92400e">六轴位移台</text><text x="250" y="118" text-anchor="middle" font-size="13" fill="#92400e">主动对准</text><rect x="360" y="70" width="130" height="70" rx="8" fill="#dcfce7" stroke="#16a34a"/><text x="425" y="100" text-anchor="middle" font-size="13" fill="#166534">硅光芯片</text><text x="425" y="118" text-anchor="middle" font-size="13" fill="#166534">倒锥耦合器</text><rect x="530" y="70" width="80" height="70" rx="8" fill="#fce7f3" stroke="#db2777"/><text x="570" y="100" text-anchor="middle" font-size="13" fill="#9d174d">光电</text><text x="570" y="118" text-anchor="middle" font-size="13" fill="#9d174d">探测器</text><line x1="140" y1="105" x2="185" y2="105" stroke="#333" stroke-width="2" marker-end="url(#arrow)"/><line x1="310" y1="105" x2="355" y2="105" stroke="#333" stroke-width="2" marker-end="url(#arrow)"/><line x1="490" y1="105" x2="525" y2="105" stroke="#333" stroke-width="2" marker-end="url(#arrow)"/><path d="M570 145 L570 200 L250 200 L250 145" fill="none" stroke="#dc2626" stroke-width="2" stroke-dasharray="6 4" marker-end="url(#arrow)"/><text x="410" y="220" text-anchor="middle" font-size="12" fill="#dc2626">反馈控制：最大化输出光功率</text><rect x="190" y="250" width="260" height="50" rx="8" fill="#ede9fe" stroke="#7c3aed"/><text x="320" y="280" text-anchor="middle" font-size="13" fill="#5b21b6">紫外固化胶固定</text><text x="30" y="330" font-size="12" fill="#475569">模场：光纤约 10 μm → 倒锥压缩 → 波导约 0.5 μm</text><rect x="470" y="315" width="14" height="14" fill="#dbeafe" stroke="#2563eb"/><text x="490" y="326" font-size="11" fill="#334155">输入</text><rect x="530" y="315" width="14" height="14" fill="#dcfce7" stroke="#16a34a"/><text x="550" y="326" font-size="11" fill="#334155">芯片</text></svg>